<?xml version="1.0" standalone="no"?>
<!DOCTYPE svg PUBLIC "-//W3C//DTD SVG 20010904//EN"
 "http://www.w3.org/TR/2001/REC-SVG-20010904/DTD/svg10.dtd">
<svg version="1.0" xmlns="http://www.w3.org/2000/svg"
 width="30.000000pt" height="19.000000pt" viewBox="0 0 920.000000 600.000000"
 preserveAspectRatio="xMidYMid meet">
<metadata>
Created by potrace 1.16, written by Peter Selinger 2001-2019
</metadata>
<g transform="translate(0.000000,600.000000) scale(0.100000,-0.100000)"
fill="#8C8C8C" stroke="none">
<path d="M4423 5740 c-172 -45 -306 -158 -383 -321 -57 -123 -72 -246 -45
-374 66 -314 386 -526 695 -461 398 84 600 521 404 875 -47 83 -150 186 -231
229 -131 69 -298 89 -440 52z"/>
<path d="M4383 4315 c-405 -73 -727 -372 -845 -785 -21 -72 -22 -99 -27 -707
l-6 -632 205 -82 c113 -45 206 -83 207 -83 3 -2 28 -465 76 -1394 l12 -223
569 1 c313 0 571 1 572 3 1 1 21 364 44 807 23 443 43 805 44 806 0 0 94 38
209 83 l207 83 0 552 c0 340 -4 585 -11 641 -57 464 -395 832 -850 925 -113
23 -294 26 -406 5z"/>
</g>
</svg>
