<?xml version="1.0" standalone="no"?>
<!DOCTYPE svg PUBLIC "-//W3C//DTD SVG 20010904//EN"
 "http://www.w3.org/TR/2001/REC-SVG-20010904/DTD/svg10.dtd">
<svg version="1.0" xmlns="http://www.w3.org/2000/svg"
 width="18.000000pt" height="18.000000pt" viewBox="0 0 225.000000 225.000000"
 preserveAspectRatio="xMidYMid meet">

<g transform="translate(0.000000,225.000000) scale(0.100000,-0.100000)"
fill="#8C8C8C" stroke="none">
<path d="M1708 1840 c-82 -21 -255 -125 -397 -239 -37 -30 -71 -49 -80 -47
-199 59 -450 84 -556 55 -69 -18 -225 -110 -231 -135 -15 -61 -3 -67 262 -133
228 -57 214 -48 147 -101 -31 -25 -62 -49 -70 -53 -7 -5 -72 11 -156 38 -79
25 -150 45 -158 45 -22 0 -164 -114 -164 -132 0 -10 63 -62 151 -126 l151
-109 134 -18 134 -18 124 62 c68 34 125 61 126 59 2 -2 -9 -100 -25 -218 -37
-270 -37 -285 -5 -306 13 -8 32 -13 42 -10 33 11 212 160 243 203 51 69 68
136 96 379 15 126 32 235 37 242 6 7 117 103 248 212 253 213 265 227 239 290
-9 23 -23 31 -73 45 -75 21 -169 28 -219 15z m190 -65 c38 -12 52 -21 52 -34
0 -12 -87 -91 -245 -222 -134 -112 -247 -213 -250 -224 -3 -11 -18 -126 -34
-256 -39 -313 -49 -335 -200 -455 -52 -41 -95 -73 -96 -72 -2 2 13 118 31 258
19 140 33 264 32 275 -2 11 -10 21 -19 23 -8 1 -82 -30 -164 -71 l-148 -73
-115 17 c-98 15 -121 23 -161 51 -152 107 -201 144 -200 148 0 9 88 70 101 70
8 0 74 -20 148 -45 74 -25 140 -45 148 -45 7 0 152 109 320 242 339 267 490
374 573 406 65 25 155 28 227 7z m-877 -230 c46 -8 103 -20 127 -27 l42 -13
-107 -85 c-60 -46 -115 -84 -123 -84 -12 1 -269 65 -424 105 -22 6 -35 14 -30
19 22 21 144 83 189 96 59 17 196 12 326 -11z"/>
<path d="M341 814 c-100 -75 -120 -104 -78 -112 16 -3 179 109 206 142 13 16
4 46 -13 46 -7 0 -58 -34 -115 -76z"/>
<path d="M400 713 c-108 -82 -155 -125 -155 -138 0 -40 43 -19 193 95 115 87
151 120 149 135 -1 11 -9 21 -17 23 -9 1 -85 -50 -170 -115z"/>
<path d="M464 612 c-155 -118 -219 -173 -219 -187 0 -11 7 -21 16 -23 14 -3
381 268 438 323 21 20 22 26 11 39 -7 9 -16 16 -20 16 -4 0 -106 -75 -226
-168z"/>
</g>
</svg>
