<?xml version="1.0" standalone="no"?>
<!DOCTYPE svg PUBLIC "-//W3C//DTD SVG 20010904//EN"
 "http://www.w3.org/TR/2001/REC-SVG-20010904/DTD/svg10.dtd">
<svg version="1.0" xmlns="http://www.w3.org/2000/svg"
 width="20.000000pt" height="20.000000pt" viewBox="0 0 920.000000 512.000000"
 preserveAspectRatio="xMidYMid meet">

<g transform="translate(0.000000,512.000000) scale(0.100000,-0.100000)"
fill="#8C8C8C" stroke="none">
<path d="M3880 4580 c-332 -40 -620 -176 -859 -405 -223 -213 -370 -492 -428
-810 -23 -123 -22 -370 1 -490 65 -341 227 -629 478 -851 190 -168 410 -278
675 -336 142 -32 433 -31 580 0 226 49 420 139 622 289 14 11 30 -1 115 -86
l99 -99 2 -60 c2 -43 10 -74 29 -109 41 -74 1264 -1294 1326 -1322 89 -41 212
-20 284 47 72 68 97 199 55 292 -27 59 -1238 1276 -1314 1321 -31 17 -72 31
-106 35 -56 6 -58 8 -160 110 l-103 103 21 23 c107 119 228 383 275 601 31
145 32 438 1 577 -66 298 -192 529 -403 740 -225 225 -485 362 -790 416 -108
19 -303 25 -400 14z m336 -315 c245 -40 459 -150 634 -325 148 -149 251 -325
306 -525 26 -93 28 -113 28 -290 0 -174 -2 -198 -27 -288 -31 -117 -108 -283
-174 -376 -154 -218 -398 -388 -659 -458 -91 -25 -114 -27 -289 -27 -174 0
-199 3 -288 27 -111 30 -274 104 -367 167 -362 246 -556 702 -485 1140 61 373
296 691 630 851 222 106 458 142 691 104z"/>
</g>
</svg>
