<?xml version="1.0" standalone="no"?>
<!DOCTYPE svg PUBLIC "-//W3C//DTD SVG 20010904//EN"
 "http://www.w3.org/TR/2001/REC-SVG-20010904/DTD/svg10.dtd">
<svg version="1.0" xmlns="http://www.w3.org/2000/svg"
 width="28.000000pt" height="16.000000pt" viewBox="0 0 920.000000 512.000000"
 preserveAspectRatio="xMidYMid meet">
<metadata>
Created by potrace 1.16, written by Peter Selinger 2001-2019
</metadata>
<g transform="translate(0.000000,512.000000) scale(0.100000,-0.100000)"
fill="#8C8C8C" stroke="none">
<path d="M5354 4314 c-47 -16 -79 -51 -93 -102 -14 -50 -14 -545 0 -595 6 -22
25 -55 43 -74 27 -30 41 -36 86 -41 65 -6 110 15 143 67 21 35 22 46 25 331 3
290 2 296 -20 340 -36 71 -108 100 -184 74z"/>
<path d="M3774 4309 c-26 -9 -60 -48 -73 -82 -7 -18 -11 -136 -11 -314 0 -272
1 -289 21 -331 27 -55 69 -82 130 -82 58 0 107 31 134 85 19 37 20 60 20 330
0 282 -1 291 -23 332 -26 50 -76 81 -103 64 -13 -7 -20 -8 -25 0 -4 8 -9 7
-15 -2 -5 -8 -9 -9 -9 -3 0 12 -18 14 -46 3z"/>
<path d="M2996 3775 c-21 -7 -54 -28 -72 -46 -69 -67 -65 44 -62 -1594 3
-1479 3 -1480 24 -1520 26 -50 90 -91 163 -105 35 -6 600 -10 1618 -10 1291 0
1569 2 1596 14 18 7 47 29 64 49 66 76 63 -10 63 1591 0 999 -3 1463 -11 1490
-15 55 -84 120 -141 134 -29 8 -134 12 -272 12 l-226 0 0 -99 c0 -141 -25
-217 -94 -286 -65 -65 -129 -89 -241 -89 -111 -1 -175 23 -240 88 -69 68 -86
119 -92 269 l-5 117 -448 0 -448 0 -4 -132 c-3 -120 -6 -138 -30 -183 -33 -64
-80 -108 -143 -137 -41 -19 -67 -23 -150 -23 -121 1 -183 23 -246 92 -67 73
-83 119 -87 261 l-4 122 -237 0 c-174 -1 -246 -4 -275 -15z m3042 -1813 l2
-1112 -1415 0 -1415 0 0 1115 0 1114 1413 -2 1412 -2 3 -1113z"/>
<path d="M3630 2637 c-50 -25 -60 -66 -60 -250 0 -178 7 -214 50 -252 20 -18
39 -20 204 -23 289 -5 289 -6 284 290 l-3 190 -33 29 -32 29 -193 0 c-133 0
-200 -4 -217 -13z"/>
<path d="M4409 2635 c-50 -27 -59 -66 -59 -249 0 -270 1 -271 276 -271 180 0
194 1 221 21 43 32 52 73 52 244 1 183 -8 223 -52 250 -29 18 -51 20 -222 20
-145 -1 -196 -4 -216 -15z"/>
<path d="M5194 2639 c-47 -24 -54 -54 -54 -254 0 -275 1 -275 262 -274 268 0
267 0 269 273 2 269 5 266 -271 265 -103 0 -194 -5 -206 -10z"/>
<path d="M3617 1850 c-38 -30 -47 -77 -47 -245 0 -168 9 -215 47 -245 24 -19
39 -20 220 -20 223 0 245 6 263 68 7 23 10 105 8 220 l-3 184 -33 29 -32 29
-199 0 c-185 0 -200 -1 -224 -20z"/>
<path d="M4401 1854 c-43 -30 -51 -71 -51 -249 0 -268 -3 -265 275 -265 277 0
275 -2 275 259 0 176 -11 226 -55 255 -36 24 -410 23 -444 0z"/>
<path d="M5184 1852 c-40 -32 -44 -54 -44 -247 0 -197 7 -232 49 -255 26 -13
406 -13 432 0 43 24 51 61 50 256 -1 195 -8 231 -50 254 -12 6 -101 10 -218
10 -172 0 -201 -3 -219 -18z"/>
</g>
</svg>
